<mxfile host="app.diagrams.net" modified="2024-06-25T06:39:21.153Z" agent="Mozilla/5.0 (Windows NT 10.0; Win64; x64) AppleWebKit/537.36 (KHTML, like Gecko) Chrome/126.0.0.0 Safari/537.36 Edg/126.0.0.0" etag="ZScI3f1gKxB0yjjD2xsk" version="24.6.2" type="github">
  <diagram name="第 1 页" id="I_ONam0dvo82VvX8nn7_">
    <mxGraphModel dx="1213" dy="746" grid="1" gridSize="10" guides="1" tooltips="1" connect="1" arrows="1" fold="1" page="1" pageScale="1" pageWidth="827" pageHeight="1169" math="0" shadow="0">
      <root>
        <mxCell id="0" />
        <mxCell id="1" parent="0" />
        <mxCell id="OIVMS29P0pJd14rZnwt_-1" value="4" style="rounded=0;whiteSpace=wrap;html=1;fillColor=#d5e8d4;strokeColor=#82b366;fontSize=25;" vertex="1" parent="1">
          <mxGeometry x="120" y="280" width="120" height="100" as="geometry" />
        </mxCell>
        <mxCell id="OIVMS29P0pJd14rZnwt_-2" value="3" style="rounded=0;whiteSpace=wrap;html=1;fillColor=#fff2cc;strokeColor=#d6b656;fontSize=25;" vertex="1" parent="1">
          <mxGeometry x="240" y="280" width="80" height="200" as="geometry" />
        </mxCell>
        <mxCell id="OIVMS29P0pJd14rZnwt_-3" value="space" style="text;html=1;align=center;verticalAlign=middle;resizable=0;points=[];autosize=1;strokeColor=none;fillColor=none;fontSize=25;" vertex="1" parent="1">
          <mxGeometry x="175" y="215" width="90" height="40" as="geometry" />
        </mxCell>
        <mxCell id="OIVMS29P0pJd14rZnwt_-4" value="1" style="ellipse;whiteSpace=wrap;html=1;aspect=fixed;fontSize=25;" vertex="1" parent="1">
          <mxGeometry x="480" y="280" width="50" height="50" as="geometry" />
        </mxCell>
        <mxCell id="OIVMS29P0pJd14rZnwt_-5" value="bsptree" style="text;html=1;align=center;verticalAlign=middle;resizable=0;points=[];autosize=1;strokeColor=none;fillColor=none;fontSize=25;" vertex="1" parent="1">
          <mxGeometry x="465" y="215" width="110" height="40" as="geometry" />
        </mxCell>
        <mxCell id="OIVMS29P0pJd14rZnwt_-6" value="2" style="ellipse;whiteSpace=wrap;html=1;aspect=fixed;fontSize=25;" vertex="1" parent="1">
          <mxGeometry x="440" y="350" width="50" height="50" as="geometry" />
        </mxCell>
        <mxCell id="OIVMS29P0pJd14rZnwt_-7" value="3" style="ellipse;whiteSpace=wrap;html=1;aspect=fixed;fontSize=25;fillColor=#fff2cc;strokeColor=#d6b656;" vertex="1" parent="1">
          <mxGeometry x="530" y="350" width="50" height="50" as="geometry" />
        </mxCell>
        <mxCell id="OIVMS29P0pJd14rZnwt_-8" value="" style="endArrow=classic;html=1;rounded=0;exitX=0.5;exitY=1;exitDx=0;exitDy=0;entryX=0.5;entryY=0;entryDx=0;entryDy=0;" edge="1" parent="1" source="OIVMS29P0pJd14rZnwt_-4" target="OIVMS29P0pJd14rZnwt_-6">
          <mxGeometry width="50" height="50" relative="1" as="geometry">
            <mxPoint x="390" y="410" as="sourcePoint" />
            <mxPoint x="440" y="360" as="targetPoint" />
          </mxGeometry>
        </mxCell>
        <mxCell id="OIVMS29P0pJd14rZnwt_-9" value="" style="endArrow=classic;html=1;rounded=0;exitX=0.5;exitY=1;exitDx=0;exitDy=0;entryX=0.5;entryY=0;entryDx=0;entryDy=0;" edge="1" parent="1" source="OIVMS29P0pJd14rZnwt_-4" target="OIVMS29P0pJd14rZnwt_-7">
          <mxGeometry width="50" height="50" relative="1" as="geometry">
            <mxPoint x="525" y="360" as="sourcePoint" />
            <mxPoint x="445" y="390" as="targetPoint" />
          </mxGeometry>
        </mxCell>
        <mxCell id="OIVMS29P0pJd14rZnwt_-10" value="5" style="rounded=0;whiteSpace=wrap;html=1;fillColor=#dae8fc;strokeColor=#6c8ebf;fontSize=25;" vertex="1" parent="1">
          <mxGeometry x="120" y="380" width="120" height="100" as="geometry" />
        </mxCell>
        <mxCell id="OIVMS29P0pJd14rZnwt_-11" value="4" style="ellipse;whiteSpace=wrap;html=1;aspect=fixed;fontSize=25;fillColor=#d5e8d4;strokeColor=#82b366;" vertex="1" parent="1">
          <mxGeometry x="389" y="430" width="50" height="50" as="geometry" />
        </mxCell>
        <mxCell id="OIVMS29P0pJd14rZnwt_-13" value="5" style="ellipse;whiteSpace=wrap;html=1;aspect=fixed;fontSize=25;fillColor=#dae8fc;strokeColor=#6c8ebf;" vertex="1" parent="1">
          <mxGeometry x="490" y="430" width="50" height="50" as="geometry" />
        </mxCell>
        <mxCell id="OIVMS29P0pJd14rZnwt_-14" value="" style="endArrow=classic;html=1;rounded=0;exitX=0.5;exitY=1;exitDx=0;exitDy=0;entryX=0.5;entryY=0;entryDx=0;entryDy=0;" edge="1" parent="1" source="OIVMS29P0pJd14rZnwt_-6" target="OIVMS29P0pJd14rZnwt_-11">
          <mxGeometry width="50" height="50" relative="1" as="geometry">
            <mxPoint x="515" y="340" as="sourcePoint" />
            <mxPoint x="475" y="360" as="targetPoint" />
          </mxGeometry>
        </mxCell>
        <mxCell id="OIVMS29P0pJd14rZnwt_-15" value="" style="endArrow=classic;html=1;rounded=0;exitX=0.5;exitY=1;exitDx=0;exitDy=0;entryX=0.5;entryY=0;entryDx=0;entryDy=0;" edge="1" parent="1" source="OIVMS29P0pJd14rZnwt_-6" target="OIVMS29P0pJd14rZnwt_-13">
          <mxGeometry width="50" height="50" relative="1" as="geometry">
            <mxPoint x="475" y="410" as="sourcePoint" />
            <mxPoint x="424" y="440" as="targetPoint" />
          </mxGeometry>
        </mxCell>
        <mxCell id="OIVMS29P0pJd14rZnwt_-17" value="" style="rounded=0;whiteSpace=wrap;html=1;fillColor=none;strokeColor=none;" vertex="1" parent="1">
          <mxGeometry x="50" y="160" width="590" height="390" as="geometry" />
        </mxCell>
      </root>
    </mxGraphModel>
  </diagram>
</mxfile>
